<svg id="Layer_1" data-name="Layer 1" xmlns="http://www.w3.org/2000/svg" viewBox="0 0 412.65 280.63"><defs><style>.cls-1{fill:#0075a8;}.cls-2{fill:#59595b;}</style></defs><title>logos-registered</title><path class="cls-1" d="M200.56,20.64l-2.17-13C197.69,3.42,196.06,0,194.77,0s-2.35,3.47-2.35,7.71v3.41a7.73,7.73,0,0,1-7.71,7.71H181.3l-0.73,0v9.37l0.73,0h12.82a6.33,6.33,0,0,0,6.44-7.61"/><path class="cls-1" d="M169.83,9.61H149l-0.51,0H127.19a4.71,4.71,0,0,0-.73.06v-2c0-4.24-1.06-7.71-2.35-7.71s-2.92,3.42-3.62,7.61l-2.17,13a6.33,6.33,0,0,0,6.44,7.61h12.82a11.69,11.69,0,0,0,3.65-.57,4.71,4.71,0,0,1-4.62,3.84h-18A4.71,4.71,0,0,1,114,26l1.82-10.92a4.71,4.71,0,0,0-4.64-5.48H21.68A4.7,4.7,0,0,0,17.4,12.4L0.55,38a1.17,1.17,0,0,0,.09,1.4L3.9,43.29a1.17,1.17,0,0,0,1.62.16l11.45-9V89.26A4.71,4.71,0,0,0,21.68,94h25.4a4.71,4.71,0,0,0,4.71-4.71V70.19a4.71,4.71,0,0,1,4.71-4.71h63.41a4.71,4.71,0,0,1,4.71,4.71V89.26A4.71,4.71,0,0,0,129.32,94h25.4a4.71,4.71,0,0,0,4.71-4.71V68.74H145.94A7.73,7.73,0,0,1,138.23,61V47.83a7.7,7.7,0,0,1,3.1-6.16V57.42A7.73,7.73,0,0,0,149,65.13h20.79a7.73,7.73,0,0,0,7.71-7.71V17.32a7.73,7.73,0,0,0-7.71-7.71"/><path class="cls-1" d="M202,4.92a4.9,4.9,0,1,1,9.8,0A4.9,4.9,0,0,1,202,4.92Zm8.62,0A3.52,3.52,0,0,0,206.88,1a3.56,3.56,0,0,0-3.76,3.87,3.54,3.54,0,0,0,3.76,3.83A3.5,3.5,0,0,0,210.6,4.9Zm-5.34-2.44H207c0.88,0,1.77.25,1.77,1.49a1.26,1.26,0,0,1-1.16,1.28l1.16,2H207.7L206.63,5.3h-0.42V7.21h-0.95V2.46Zm1.81,2.17a0.7,0.7,0,0,0,.76-0.69,0.64,0.64,0,0,0-.76-0.63h-0.86V4.62h0.86Z"/><path class="cls-2" d="M0.35,115.53H28.91c13.56,0,22.7,6.57,22.7,19.31,0,10.37-7.09,16.64-14,18.8a20.57,20.57,0,0,1,4.83,6.57c2.88,5.85,4.83,12.32,10.89,12.32a8,8,0,0,0,2.77-.51l-1.34,12.22a33.6,33.6,0,0,1-6.88.92C39.69,185.17,35,182,30.14,171c-2.05-4.93-4.93-13.56-8.73-13.56h-3.9v27.42H0.35V115.53ZM17.51,128v17h6.16c4.93,0,10.68-1.54,10.68-8.93,0-6.06-3.9-8.12-8.63-8.12H17.51Z"/><path class="cls-2" d="M74.81,115.53H92.17l23.42,69.33H98.23l-4.31-13.15H70.7l-4.21,13.15h-15Zm0,43.45H89.7L85,144.4a67.81,67.81,0,0,1-2.36-11.91H82.2a87.92,87.92,0,0,1-2.57,11.81Z"/><path class="cls-2" d="M116.29,115.53h18.39l18.18,34.41c1.54,3,3.59,8.22,5.24,12.32h0.41c-0.2-3.9-.72-9.45-0.72-13.45V115.53h14.07v69.33h-18L135,150.56a96,96,0,0,1-5-11.3h-0.41c0.31,3.9.82,8.53,0.82,12.32v33.28H116.29V115.53Z"/><path class="cls-2" d="M175.55,149.74c0-25.06,12.43-35.44,31.63-35.44,20.23,0,28.35,11.09,26.09,26.09l-16,1.44c1.75-11-2.57-15.41-10.37-15.41-7.5,0-13.56,5.55-13.56,23.42,0,18.9,6.57,23.73,14.07,23.73,7.09,0,12.84-4.42,11.61-13.46l15,1.54c1.13,14.07-9,24.44-27.53,24.44-18.8,0-30.92-11.09-30.92-36.36"/><polygon class="cls-2" points="239.47 115.53 256.63 115.53 256.63 141.73 277.68 141.73 277.68 115.53 294.83 115.53 294.83 184.86 277.68 184.86 277.68 155.49 256.63 155.49 256.63 184.86 239.47 184.86 239.47 115.53"/><polygon class="cls-2" points="299.7 115.53 345.62 115.53 345.62 128.27 316.86 128.27 316.86 143.16 340.99 143.16 340.99 155.9 316.86 155.9 316.86 172.13 346.64 172.13 346.64 184.86 299.7 184.86 299.7 115.53"/><path class="cls-2" d="M349.92,115.53h28.55c13.56,0,22.7,6.57,22.7,19.31,0,10.37-7.09,16.64-14,18.8a20.56,20.56,0,0,1,4.83,6.57c2.88,5.85,4.83,12.32,10.89,12.32a8,8,0,0,0,2.77-.51l-1.33,12.22a33.62,33.62,0,0,1-6.88.92c-8.22,0-12.94-3.18-17.77-14.17-2.05-4.93-4.93-13.56-8.73-13.56h-3.9v27.42H349.92V115.53ZM367.07,128v17h6.16c4.93,0,10.68-1.54,10.68-8.93,0-6.06-3.9-8.12-8.63-8.12h-8.22Z"/><path class="cls-2" d="M0.35,205.68H17.5v56.58H46.36V275h-46V205.68Z"/><path class="cls-2" d="M65.58,205.68H82.94L106.35,275H89l-4.31-13.14H61.48L57.27,275h-15Zm0,43.43H80.47l-4.72-14.58a67.79,67.79,0,0,1-2.36-11.91H73a88,88,0,0,1-2.57,11.81Z"/><path class="cls-2" d="M108.71,205.68h29.68c12.22,0,21.46,4.11,21.46,16.74,0,9.55-5.24,13.25-14.17,15.2V238C155.84,239.25,162,244.59,162,255c0,13.55-9.75,20-22.8,20h-30.5V205.68Zm24.64,26.59c4.52,0,9-1.23,9-7.19s-4-7-8-7h-8.63v14.17h7.6ZM135,262.56c5.24,0,9.76-2.57,9.76-9.45,0-6-4.52-8.42-9.76-8.42h-9.24v17.87H135Z"/><path class="cls-2" d="M179.63,252.19c-1.23,5.54.92,11.91,11.81,11.91,7.19,0,9.65-2.88,9.65-6.67,0-5.75-5.75-7.19-12.53-9.65-10.17-3.49-22.69-8.42-22.69-22.9,0-12.94,10-20.84,26.9-20.43,20.74,0.41,26.59,12.63,24.34,23.21l-15.71,1.44c1-8-1.85-12.53-10-12.53-5.44,0-8.52,2.05-8.52,6.37,0,5.75,5.55,7.5,12.32,9.86,10.47,3.49,22.9,7.7,22.9,22.08,0,12.42-9.24,21.36-27.31,21.36-16.94,0-28.55-7.8-26.18-22.59Z"/></svg>